<svg xmlns="http://www.w3.org/2000/svg" viewBox="0 0 144 190" width="144" height="190" role="img" aria-labelledby="three-way-control-valve-rev2-title three-way-control-valve-rev2-desc">
  <title id="three-way-control-valve-rev2-title">3-way control valve symbol rev2</title>
  <desc id="three-way-control-valve-rev2-desc">A glowing emerald 3-way control valve on a transparent background.</desc>
  <defs>
    <radialGradient id="three-way-control-valve-rev2-radial" cx="50%" cy="50%" r="70%">
      <stop offset="0%" stop-color="#10b981" stop-opacity="0.15"/>
      <stop offset="70%" stop-color="#10b981" stop-opacity="0"/>
    </radialGradient>
    <filter id="three-way-control-valve-rev2-glow" x="-40%" y="-40%" width="180%" height="180%" color-interpolation-filters="sRGB">
      <feDropShadow dx="0" dy="0" stdDeviation="2.2" flood-color="#10b981" flood-opacity="0.8"/>
      <feDropShadow dx="0" dy="0" stdDeviation="5.5" flood-color="#10b981" flood-opacity="0.6"/>
      <feDropShadow dx="0" dy="0" stdDeviation="10.5" flood-color="#10b981" flood-opacity="0.4"/>
    </filter>
  </defs>

  <g transform="translate(17 29)" filter="url(#three-way-control-valve-rev2-glow)">
    <path fill="url(#three-way-control-valve-rev2-radial)" d="M1,41 L55,67.5 L1,94 Z M109,41 L55,67.5 L109,94 Z"/>
    <path fill="none" stroke="#10b981" stroke-width="2" stroke-linejoin="miter" stroke-linecap="butt" d="M1,41 L55,67.5 L1,94 Z M109,41 L55,67.5 L109,94 Z"/>
    <path fill="url(#three-way-control-valve-rev2-radial)" d="M28.5,121.5 L55,67.5 L81.5,121.5 Z"/>
    <path fill="none" stroke="#10b981" stroke-width="2" stroke-linejoin="miter" stroke-linecap="butt" d="M28.5,121.5 L55,67.5 L81.5,121.5 Z"/>
    <path fill="none" stroke="#10b981" stroke-width="2" stroke-linejoin="miter" stroke-linecap="butt" d="M55,67.5 L55,25 M35,25 L75,25 A20 20 0 0 0 35 25 Z"/>
  </g>
</svg>
