<svg xmlns="http://www.w3.org/2000/svg" width="96" height="96" viewBox="0 0 96 96">
  <defs>
    <linearGradient id="busGH" x1="0%" y1="0%" x2="0%" y2="100%">
      <stop offset="0%" style="stop-color:#d32f2f"/>
      <stop offset="100%" style="stop-color:#f44336"/>
    </linearGradient>
    <linearGradient id="busGV" x1="0%" y1="0%" x2="100%" y2="0%">
      <stop offset="0%" style="stop-color:#d32f2f"/>
      <stop offset="100%" style="stop-color:#f44336"/>
    </linearGradient>
    <filter id="busGlow" x="-50%" y="-50%" width="200%" height="200%">
      <feGaussianBlur in="SourceGraphic" stdDeviation="3" result="b"/>
      <feMerge>
        <feMergeNode in="b"/>
        <feMergeNode in="SourceGraphic"/>
      </feMerge>
    </filter>
  </defs>
  <rect x="8" y="20" width="80" height="14" rx="3" ry="3" fill="url(#busGH)" filter="url(#busGlow)" stroke="#ef5350" stroke-width="0.5"/>
  <rect x="41" y="28" width="14" height="60" rx="3" ry="3" fill="url(#busGV)" filter="url(#busGlow)" stroke="#ef5350" stroke-width="0.5"/>
  <line x1="8" y1="17" x2="8" y2="37" stroke="#ef9a9a" stroke-width="1.5" stroke-linecap="round" opacity="0.6"/>
  <line x1="28" y1="17" x2="28" y2="37" stroke="#ef9a9a" stroke-width="1.5" stroke-linecap="round" opacity="0.6"/>
  <line x1="48" y1="17" x2="48" y2="37" stroke="#ef9a9a" stroke-width="1.5" stroke-linecap="round" opacity="0.6"/>
  <line x1="68" y1="17" x2="68" y2="37" stroke="#ef9a9a" stroke-width="1.5" stroke-linecap="round" opacity="0.6"/>
  <line x1="88" y1="17" x2="88" y2="37" stroke="#ef9a9a" stroke-width="1.5" stroke-linecap="round" opacity="0.6"/>
  <line x1="38" y1="28" x2="58" y2="28" stroke="#ef9a9a" stroke-width="1.5" stroke-linecap="round" opacity="0.6"/>
  <line x1="38" y1="48" x2="58" y2="48" stroke="#ef9a9a" stroke-width="1.5" stroke-linecap="round" opacity="0.6"/>
  <line x1="38" y1="68" x2="58" y2="68" stroke="#ef9a9a" stroke-width="1.5" stroke-linecap="round" opacity="0.6"/>
  <line x1="38" y1="88" x2="58" y2="88" stroke="#ef9a9a" stroke-width="1.5" stroke-linecap="round" opacity="0.6"/>
</svg>